<svg xmlns="http://www.w3.org/2000/svg" xmlns:xlink="http://www.w3.org/1999/xlink" preserveAspectRatio="xMidYMid" width="23.97" height="13.219" viewBox="0 0 23.97 13.219">
  <defs>
    <style>
      .cls-1 {
        fill: #fff;
        fill-rule: evenodd;
      }
    </style>
  </defs>
  <path d="M7.442,13.208 L7.442,10.729 L23.969,10.729 L23.969,13.208 L7.442,13.208 ZM7.442,4.945 L23.969,4.945 L23.969,7.424 L7.442,7.424 L7.442,4.945 ZM7.442,-0.013 L23.969,-0.013 L23.969,2.465 L7.442,2.465 L7.442,-0.013 ZM0.005,10.729 L4.136,10.729 L4.136,13.208 L0.005,13.208 L0.005,10.729 ZM0.005,4.945 L4.136,4.945 L4.136,7.424 L0.005,7.424 L0.005,4.945 ZM0.005,-0.013 L4.136,-0.013 L4.136,2.465 L0.005,2.465 L0.005,-0.013 Z" class="cls-1"/>
</svg>
