<svg xmlns="http://www.w3.org/2000/svg" xmlns:xlink="http://www.w3.org/1999/xlink" preserveAspectRatio="xMidYMid" width="19" height="21.593" viewBox="0 0 19 21.593">
  <defs>
    <style>
      .cls-1 {
        fill: #888;
        fill-rule: evenodd;
      }
    </style>
  </defs>
  <path d="M0.006,4.321 C0.006,4.321 0.006,3.741 0.006,3.026 C0.006,2.311 0.586,1.732 1.301,1.732 L17.696,1.732 C18.411,1.732 18.990,2.311 18.990,3.026 C18.990,3.741 18.990,4.321 18.990,4.321 L0.006,4.321 ZM7.772,0.006 L11.224,0.006 C11.700,0.006 12.087,1.732 12.087,1.732 L6.909,1.732 C6.909,1.732 7.296,0.006 7.772,0.006 ZM16.401,18.990 C16.401,20.420 15.242,21.579 13.812,21.579 L5.183,21.579 C3.754,21.579 2.595,20.420 2.595,18.990 L0.869,5.184 L18.127,5.184 L16.401,18.990 ZM6.909,7.772 L5.183,7.772 L5.183,18.990 L6.909,18.990 L6.909,7.772 ZM10.361,7.772 L8.635,7.772 L8.635,18.990 L10.361,18.990 L10.361,7.772 ZM13.812,7.772 L12.087,7.772 L12.087,18.990 L13.812,18.990 L13.812,7.772 Z" class="cls-1"/>
</svg>
